<?xml version="1.0" standalone="no"?>
<!DOCTYPE svg PUBLIC "-//W3C//DTD SVG 20010904//EN"
 "http://www.w3.org/TR/2001/REC-SVG-20010904/DTD/svg10.dtd">
<svg version="1.0" xmlns="http://www.w3.org/2000/svg"
 width="746.000000pt" height="237.000000pt" viewBox="0 0 746.000000 237.000000"
 preserveAspectRatio="xMidYMid meet">

<g transform="translate(0.000000,237.000000) scale(0.100000,-0.100000)"
fill="#000000" stroke="none">
<path d="M6830 2206 c0 -2 20 -16 45 -31 104 -60 209 -204 235 -321 16 -70 13
-219 -5 -288 -34 -130 -121 -243 -245 -317 -124 -76 163 -70 -3300 -67 l-3105
3 -42 22 c-50 27 -98 83 -117 138 l-14 40 -1 -48 c-1 -63 30 -128 87 -177 85
-75 -198 -69 3225 -69 3405 0 3154 -5 3295 65 128 63 225 175 280 323 33 89
41 249 19 338 -44 168 -154 303 -300 368 -32 13 -57 23 -57 21z"/>
<path d="M585 2125 c-42 -15 -80 -54 -89 -89 -2 -12 -26 -150 -52 -307 -52
-319 -52 -343 0 -395 39 -39 92 -51 146 -35 53 16 78 55 96 147 8 43 16 79 18
81 2 2 18 -32 36 -77 42 -104 80 -140 150 -140 70 0 101 29 141 136 34 92 42
93 54 9 11 -79 37 -129 78 -148 70 -34 156 -10 187 51 8 17 17 32 20 32 3 0
12 -13 22 -29 53 -94 184 -91 231 6 l21 43 116 0 116 0 17 -39 c21 -47 53 -70
109 -77 54 -7 106 20 128 64 16 33 30 42 30 19 0 -18 49 -64 83 -76 75 -29
116 -7 196 104 35 47 67 85 71 83 5 -2 37 -41 72 -88 70 -94 109 -118 173
-106 78 15 137 108 113 177 -6 16 -48 78 -94 137 -46 59 -84 110 -84 114 0 4
38 55 85 113 47 59 88 118 91 131 24 95 -75 192 -173 168 -43 -11 -59 -25
-119 -105 -30 -41 -58 -73 -61 -73 -4 1 -29 35 -57 75 -61 89 -103 115 -169
104 -29 -5 -53 -19 -79 -45 -34 -33 -38 -43 -38 -86 0 -56 13 -81 106 -200
l64 -82 -89 -111 c-49 -62 -92 -117 -94 -124 -2 -7 -6 -10 -9 -7 -2 3 -60 136
-127 295 -68 160 -133 301 -145 314 -26 29 -75 51 -115 51 -46 0 -109 -29
-129 -59 -16 -22 -115 -250 -228 -525 -22 -54 -34 -72 -37 -60 -3 11 -20 98
-37 194 -49 270 -69 362 -86 388 -19 29 -88 61 -132 62 -40 0 -91 -21 -114
-46 -9 -11 -39 -77 -66 -148 l-49 -128 -53 126 c-59 141 -80 170 -136 185 -49
14 -60 13 -109 -4z m1238 -47 c9 -5 28 -30 41 -57 46 -90 246 -572 246 -592 0
-35 -44 -69 -90 -69 -56 0 -78 14 -100 64 -22 51 -31 54 -192 55 l-107 1 -22
-50 c-25 -58 -42 -70 -97 -70 -33 0 -45 6 -66 31 -14 17 -26 39 -26 50 0 20
232 578 256 616 24 39 103 49 157 21z m540 -8 c19 -16 58 -66 87 -110 29 -44
55 -80 59 -80 3 0 35 41 70 91 80 113 104 133 151 125 41 -6 90 -55 90 -90 0
-14 -36 -68 -95 -141 -52 -65 -95 -126 -95 -134 0 -9 13 -32 29 -51 106 -130
161 -213 161 -244 0 -42 -25 -64 -81 -72 -43 -6 -46 -4 -79 33 -19 22 -60 74
-90 116 -30 42 -57 77 -60 77 -3 0 -40 -47 -83 -104 -79 -107 -115 -134 -158
-121 -30 10 -79 62 -79 84 0 20 52 93 149 209 38 44 59 77 54 85 -4 7 -34 47
-67 90 -129 167 -127 163 -104 213 12 26 57 53 90 54 10 0 33 -13 51 -30z
m-1708 11 c-36 -9 -68 -25 -82 -43 -9 -11 -50 -216 -112 -553 -5 -27 -9 -39
-10 -25 -1 24 84 537 95 572 10 32 54 58 98 57 39 -1 39 -1 11 -8z m440 -4
c-46 -14 -56 -30 -136 -227 -28 -69 -57 -132 -65 -140 -8 -8 19 67 59 168 41
101 83 189 93 197 11 8 35 14 54 14 l35 -1 -40 -11z"/>
<path d="M1745 1808 c-2 -7 -16 -44 -30 -82 -14 -37 -25 -72 -25 -77 0 -5 32
-9 70 -9 39 0 70 2 70 4 0 2 -14 41 -31 85 -31 82 -45 103 -54 79z m25 -119
c0 -5 -7 -9 -15 -9 -9 0 -12 6 -9 15 6 15 24 11 24 -6z"/>
<path d="M2226 1473 c-6 -14 -5 -15 5 -6 7 7 10 15 7 18 -3 3 -9 -2 -12 -12z"/>
<path d="M2220 1425 c22 -24 30 -29 30 -22 0 8 -38 47 -45 47 -5 0 2 -11 15
-25z"/>
<path d="M3664 2121 c-16 -10 -61 -56 -100 -102 l-69 -83 -6 64 c-6 57 -10 67
-42 97 -32 28 -44 33 -87 33 -63 0 -105 -21 -126 -62 -14 -28 -17 -76 -18
-352 -1 -369 -1 -372 81 -408 58 -25 103 -18 150 26 33 30 37 39 42 102 l6 69
78 -97 c85 -106 120 -127 191 -114 71 14 129 102 112 171 -3 13 -49 76 -101
139 -52 63 -95 117 -95 121 0 3 40 53 90 110 49 58 92 116 96 130 29 115 -103
217 -202 156z m139 -61 c45 -50 38 -68 -78 -200 -58 -65 -105 -124 -105 -130
0 -5 45 -63 101 -127 56 -65 105 -129 110 -141 22 -56 -59 -124 -124 -105 -31
8 -47 26 -219 233 l-37 45 -1 -102 c0 -56 -4 -113 -10 -127 -19 -52 -111 -67
-155 -26 l-25 23 0 319 0 319 25 24 c48 49 145 26 160 -38 3 -12 6 -63 8 -113
l2 -92 104 130 c56 71 113 134 125 139 37 15 89 2 119 -31z"/>
<path d="M2981 2117 c-13 -6 -34 -25 -45 -40 -20 -27 -21 -41 -24 -350 -3
-355 -1 -366 60 -411 63 -45 169 -16 199 56 20 47 20 638 0 685 -26 63 -125
94 -190 60z m112 -38 c14 -6 30 -22 36 -36 12 -26 16 -608 5 -638 -9 -22 -56
-45 -93 -45 -17 0 -41 10 -55 23 l-25 22 -2 319 -2 319 27 24 c29 25 71 30
109 12z"/>
<path d="M3962 2110 c-59 -36 -62 -56 -62 -395 0 -237 3 -313 14 -339 41 -98
175 -112 237 -25 24 34 24 35 27 351 3 352 1 371 -60 408 -20 12 -50 20 -78
20 -28 0 -58 -8 -78 -20z m127 -35 c16 -8 31 -22 35 -30 3 -9 6 -158 6 -330
l0 -314 -26 -20 c-36 -29 -95 -28 -128 2 l-26 22 -1 320 0 320 26 23 c30 25
74 28 114 7z"/>
<path d="M4497 2120 c-193 -49 -320 -233 -304 -440 13 -169 105 -298 257 -361
43 -18 75 -23 145 -23 81 -1 97 2 158 31 149 71 236 217 237 402 l1 46 16 -30
c8 -16 25 -41 37 -54 26 -29 119 -76 180 -92 26 -6 49 -15 52 -20 10 -17 -31
-9 -84 16 -129 60 -222 13 -222 -113 0 -71 29 -109 115 -152 65 -33 76 -35
165 -35 79 0 104 4 148 24 89 40 162 139 162 222 0 19 7 11 31 -31 43 -79 103
-136 188 -178 71 -35 80 -37 170 -37 84 0 103 3 156 28 93 44 134 92 136 159
0 30 1 31 12 13 7 -11 41 -50 77 -86 87 -88 149 -113 275 -114 81 0 97 4 158
32 84 40 155 111 199 200 29 58 33 78 36 165 4 84 1 108 -18 161 -43 117 -126
208 -229 249 -44 18 -76 22 -151 23 -86 0 -101 -3 -162 -32 -74 -35 -154 -108
-185 -167 l-19 -37 0 50 c0 63 -21 94 -94 138 -126 77 -295 67 -428 -24 -92
-63 -156 -174 -169 -293 l-6 -57 -35 39 c-20 22 -49 46 -65 54 l-29 15 44 22
c56 29 81 74 75 141 -4 42 -10 55 -45 87 -100 94 -308 93 -416 -2 -54 -48 -72
-78 -87 -149 l-11 -50 -26 52 c-61 123 -190 207 -330 214 -42 2 -94 -1 -115
-6z m233 -71 c83 -38 140 -95 178 -177 23 -49 27 -70 27 -152 0 -81 -4 -103
-27 -151 -14 -31 -42 -74 -61 -95 -39 -44 -113 -89 -121 -75 -3 5 8 14 24 21
17 7 30 16 30 21 0 5 -14 2 -31 -6 -17 -9 -34 -14 -37 -10 -8 7 19 25 29 19 4
-2 12 2 18 9 8 11 7 14 -7 14 -9 0 -21 -5 -25 -11 -6 -8 -10 -7 -14 2 -4 10
-8 9 -18 -4 -6 -9 -23 -18 -36 -20 -13 -1 -28 -3 -32 -3 -5 -1 -5 -7 0 -13 4
-7 8 -17 8 -23 0 -12 23 -14 52 -3 12 4 25 4 27 -1 3 -4 -20 -14 -50 -20 -71
-16 -155 -6 -214 24 -51 27 -39 33 18 10 24 -10 38 -12 40 -5 2 5 14 10 26 10
19 0 23 6 24 30 1 26 -3 30 -26 30 l-27 1 25 15 c14 8 17 13 7 10 -15 -5 -17
-2 -12 14 4 11 2 20 -4 20 -6 0 -11 -7 -11 -15 0 -18 -9 -19 -30 -4 -11 8 -12
12 -2 16 6 2 12 9 12 14 0 5 -9 4 -20 -3 -11 -7 -18 -18 -16 -25 6 -14 -25
-27 -34 -14 -3 6 -11 1 -19 -10 -7 -12 -8 -18 -2 -14 6 3 11 1 11 -4 0 -6 -6
-11 -14 -11 -8 0 -16 -6 -19 -12 -11 -33 -95 78 -122 162 -67 202 42 408 245
465 76 21 146 13 230 -26z m640 25 c71 -21 110 -60 110 -110 0 -76 -61 -104
-140 -64 -68 35 -140 22 -140 -25 0 -28 37 -50 134 -80 72 -23 133 -67 164
-120 19 -33 22 -52 20 -106 -4 -82 -36 -135 -105 -176 -45 -26 -55 -28 -158
-28 -101 0 -114 2 -162 27 -28 15 -59 38 -67 50 -24 34 -20 85 9 113 30 30 72
32 123 6 88 -45 172 -35 172 20 0 35 -19 49 -120 85 -149 53 -198 112 -188
228 8 91 65 155 168 187 43 13 124 10 180 -7z m726 -23 c49 -23 68 -38 80 -64
20 -42 13 -79 -21 -113 -31 -31 -62 -30 -121 1 -73 39 -140 31 -198 -23 -84
-79 -71 -231 24 -286 46 -27 122 -26 177 2 56 29 94 28 126 -3 75 -75 14 -165
-136 -202 -248 -60 -483 165 -437 419 20 109 73 192 158 247 106 68 233 76
348 22z m614 20 c104 -31 197 -129 231 -243 55 -181 -25 -359 -197 -440 -55
-26 -78 -31 -144 -31 -71 -1 -86 3 -154 36 -114 57 -175 139 -197 266 -33 185
81 367 260 418 49 14 144 11 201 -6z m-496 -251 c-16 -56 -14 -186 2 -224 6
-16 1 -14 -30 9 -44 33 -108 38 -147 11 -47 -33 -95 -39 -142 -18 -68 30 -94
99 -61 167 33 70 111 91 187 51 77 -42 146 -29 183 34 10 16 19 28 20 27 1 -1
-4 -27 -12 -57z m-914 40 c13 -8 13 -10 -2 -10 -9 0 -20 5 -23 10 -8 13 5 13
25 0z m-827 -377 c-13 -8 -23 -24 -23 -34 0 -13 -5 -16 -16 -12 -11 4 -12 8
-4 13 7 4 10 12 6 18 -7 12 21 32 44 31 10 0 8 -5 -7 -16z m47 -38 c-7 -8 -22
-15 -33 -15 -20 0 -20 0 -1 15 27 20 51 20 34 0z m-110 -9 c0 -3 -4 -8 -10
-11 -5 -3 -10 -1 -10 4 0 6 5 11 10 11 6 0 10 -2 10 -4z m280 -26 c-8 -5 -17
-7 -19 -4 -3 3 1 9 9 14 8 5 17 7 19 4 3 -3 -1 -9 -9 -14z"/>
<path d="M4670 2052 c0 -8 43 -32 55 -32 2 0 2 7 -2 16 -3 8 -12 13 -19 10 -8
-3 -14 -1 -14 4 0 6 -4 10 -10 10 -5 0 -10 -4 -10 -8z"/>
<path d="M4456 2028 c-43 -22 -74 -48 -57 -48 5 0 13 5 16 10 10 17 82 50 90
42 5 -4 5 -1 1 6 -4 6 -8 12 -9 12 -1 -1 -20 -10 -41 -22z"/>
<path d="M4692 2001 c-11 -7 -11 -9 2 -14 10 -4 16 -1 16 8 0 17 -1 17 -18 6z"/>
<path d="M4650 1961 c0 -6 5 -13 10 -16 6 -3 10 1 10 9 0 9 -4 16 -10 16 -5 0
-10 -4 -10 -9z"/>
<path d="M4725 1960 c-3 -6 1 -7 9 -4 18 7 21 14 7 14 -6 0 -13 -4 -16 -10z"/>
<path d="M4580 1932 c0 -4 16 -8 35 -9 19 -2 35 0 35 5 0 4 -16 8 -35 9 -19 1
-35 -1 -35 -5z"/>
<path d="M4836 1925 c4 -8 11 -15 16 -15 6 0 5 6 -2 15 -7 8 -14 15 -16 15 -2
0 -1 -7 2 -15z"/>
<path d="M4530 1920 c0 -5 7 -7 15 -4 8 4 15 8 15 10 0 2 -7 4 -15 4 -8 0 -15
-4 -15 -10z"/>
<path d="M4472 1904 c-9 -10 -7 -12 6 -11 10 0 24 7 30 13 9 10 7 12 -6 11
-10 0 -24 -7 -30 -13z"/>
<path d="M4515 1891 c-48 -29 -82 -76 -94 -129 -33 -155 96 -266 236 -203 104
48 136 201 60 288 -55 63 -141 82 -202 44z m135 -66 c60 -31 81 -136 38 -190
-66 -84 -188 -60 -219 43 -32 107 82 198 181 147z"/>
<path d="M4820 1890 c0 -5 5 -10 11 -10 5 0 7 5 4 10 -3 6 -8 10 -11 10 -2 0
-4 -4 -4 -10z"/>
<path d="M4440 1869 c0 -5 5 -7 10 -4 6 3 10 8 10 11 0 2 -4 4 -10 4 -5 0 -10
-5 -10 -11z"/>
<path d="M4383 1855 c0 -8 4 -12 9 -9 5 3 6 10 3 15 -9 13 -12 11 -12 -6z"/>
<path d="M4856 1847 c3 -10 9 -15 12 -12 3 3 0 11 -7 18 -10 9 -11 8 -5 -6z"/>
<path d="M4891 1835 c1 -19 18 -51 18 -35 0 8 -4 22 -9 30 -5 8 -9 11 -9 5z"/>
<path d="M4777 1763 c-10 -10 -8 -103 2 -103 5 0 11 9 14 20 3 13 1 18 -5 13
-8 -4 -9 8 -5 35 5 44 5 46 -6 35z"/>
<path d="M4250 1685 c0 -8 2 -15 4 -15 2 0 6 7 10 15 3 8 1 15 -4 15 -6 0 -10
-7 -10 -15z"/>
<path d="M4268 1633 c5 -21 7 -23 10 -9 2 10 0 22 -6 28 -6 6 -7 0 -4 -19z"/>
<path d="M4397 1637 c-3 -9 -2 -19 4 -23 15 -9 18 -2 9 20 -6 17 -7 18 -13 3z"/>
<path d="M4887 1629 c7 -7 15 -10 18 -7 3 3 -2 9 -12 12 -14 6 -15 5 -6 -5z"/>
<path d="M4364 1602 c-21 -13 9 -30 42 -23 5 1 -21 31 -28 31 -2 0 -8 -4 -14
-8z"/>
<path d="M4424 1572 c-6 -4 -13 -15 -17 -25 -5 -14 -3 -18 11 -15 9 2 16 10
14 18 -2 7 3 17 10 21 7 5 9 9 3 9 -5 0 -15 -4 -21 -8z"/>
<path d="M4686 1545 c-11 -8 -15 -15 -9 -15 6 0 16 7 23 15 16 19 11 19 -14 0z"/>
<path d="M4364 1530 c0 -10 3 -17 7 -14 4 2 10 -2 12 -8 4 -9 6 -7 6 3 1 9 -5
21 -12 27 -10 8 -13 6 -13 -8z"/>
<path d="M4328 1513 c6 -2 12 -14 12 -25 0 -17 2 -18 15 -8 13 11 13 14 -2 26
-10 7 -22 13 -28 13 -5 0 -4 -3 3 -6z"/>
<path d="M4550 1510 c8 -5 24 -7 35 -3 17 5 18 4 6 -10 -7 -9 -18 -14 -24 -10
-6 4 -7 1 -2 -6 5 -9 14 -6 34 11 14 13 28 24 30 26 2 1 -18 2 -45 2 -35 0
-45 -3 -34 -10z"/>
<path d="M4634 1489 c-3 -6 -1 -16 5 -22 9 -9 11 -7 6 8 -4 16 -3 15 6 -2 13
-25 24 -29 35 -11 4 6 3 8 -3 5 -6 -4 -13 2 -16 13 -6 22 -22 26 -33 9z"/>
<path d="M4360 1470 c0 -5 5 -10 10 -10 6 0 10 5 10 10 0 6 -4 10 -10 10 -5 0
-10 -4 -10 -10z"/>
<path d="M6532 1883 c-59 -29 -86 -76 -90 -157 -3 -61 -1 -76 20 -105 66 -98
210 -99 275 -3 42 62 39 164 -6 219 -49 59 -133 79 -199 46z m121 -57 c84 -35
98 -150 26 -211 -36 -30 -111 -35 -147 -9 -57 39 -69 132 -25 184 42 50 87 61
146 36z"/>
<path d="M4600 1034 c93 -64 124 -121 118 -213 -4 -53 -1 -71 14 -92 25 -34
34 -124 18 -201 -28 -143 -111 -241 -247 -290 -110 -39 -286 -25 -371 30 -21
13 -27 12 -81 -17 -72 -38 -163 -43 -224 -12 -36 19 -38 19 -74 -1 -56 -28
-188 -23 -233 10 l-32 24 -48 -21 c-259 -111 -542 26 -614 299 l-15 55 0 -40
c-1 -94 53 -217 128 -292 98 -96 271 -149 408 -124 37 7 86 20 108 30 40 17
41 17 94 -7 67 -31 147 -34 212 -9 42 16 49 16 82 2 21 -8 66 -15 106 -15 57
0 79 5 125 29 30 17 58 26 61 21 9 -14 125 -49 186 -56 174 -20 376 80 449
223 52 102 65 243 30 322 -15 33 -19 55 -14 90 7 55 -6 110 -38 157 -25 37
-108 98 -148 109 l-25 7 25 -18z"/>
<path d="M3169 986 c-98 -26 -181 -95 -223 -185 -17 -37 -21 -65 -21 -146 0
-86 4 -107 25 -150 32 -64 92 -124 155 -154 59 -28 178 -39 242 -22 55 15 132
68 160 110 l23 34 0 -32 c0 -97 103 -153 187 -102 23 15 35 32 45 68 l14 47
28 -47 c15 -27 42 -57 59 -68 60 -36 142 -17 172 41 27 52 19 82 -41 157 -19
23 -34 44 -34 48 0 3 11 17 24 31 l23 26 7 -44 c17 -110 106 -218 214 -258 47
-18 72 -21 142 -18 128 7 207 54 255 153 50 102 36 216 -32 250 l-21 11 22 29
c14 20 21 44 21 73 0 40 -5 48 -43 83 -118 105 -340 98 -454 -14 -24 -23 -51
-57 -59 -76 l-17 -33 -12 37 c-16 48 -63 101 -114 127 -34 18 -63 23 -169 26
-143 5 -179 -4 -202 -49 -8 -15 -15 -43 -15 -61 l0 -33 -18 35 c-45 90 -211
142 -343 106z m201 -52 c67 -21 103 -54 103 -94 0 -36 -31 -70 -64 -70 -11 0
-43 12 -71 26 -40 20 -61 25 -96 21 -152 -17 -195 -214 -63 -291 60 -35 177
-18 194 29 5 12 -3 15 -48 15 -44 0 -57 4 -69 22 -23 32 -20 55 9 84 25 25 30
26 121 22 112 -4 124 -12 124 -92 -1 -132 -105 -228 -245 -228 -177 0 -300
118 -299 287 0 152 97 264 247 285 59 8 92 4 157 -16z m497 0 c39 -6 88 -45
109 -86 9 -16 15 -54 15 -84 0 -63 -23 -109 -70 -137 -36 -21 -34 -29 31 -110
21 -27 41 -60 44 -73 9 -36 -20 -64 -67 -64 -42 0 -50 7 -137 135 -26 38 -51
69 -57 67 -5 -1 -11 -40 -13 -86 -3 -97 -17 -118 -78 -118 -68 0 -69 4 -72
272 -3 248 0 274 38 288 20 8 204 5 257 -4z m604 -4 c88 -33 117 -77 88 -131
-20 -38 -55 -42 -112 -12 -94 48 -187 29 -231 -47 -38 -65 -18 -168 40 -206
58 -39 159 -34 202 10 l27 26 -62 0 c-68 0 -86 13 -86 60 0 55 26 70 117 70
103 0 123 -6 141 -41 47 -90 -31 -234 -146 -268 -52 -16 -149 -16 -197 0 -120
39 -192 139 -194 269 -1 118 52 209 153 259 53 26 73 31 135 31 49 0 91 -7
125 -20z m-943 -190 c-3 -30 -4 -30 -26 -15 l-22 16 20 26 c11 14 21 33 21 42
1 9 4 4 6 -11 2 -15 3 -41 1 -58z m-220 11 c10 -6 3 -10 -21 -15 -23 -4 -46
-19 -63 -39 -24 -28 -26 -37 -21 -87 l6 -55 -30 33 c-18 21 -29 43 -29 63 0
36 23 84 47 98 22 13 93 14 111 2z m1088 2 c14 -5 9 -9 -21 -17 -53 -15 -79
-53 -78 -116 1 -60 -13 -62 -40 -7 -24 47 -15 88 25 122 29 25 77 33 114 18z"/>
<path d="M3720 760 l0 -60 50 0 c77 0 111 45 74 98 -12 18 -25 22 -70 22 l-54
0 0 -60z m93 6 c7 -17 -1 -26 -24 -26 -21 0 -33 15 -24 30 9 15 42 12 48 -4z"/>
</g>
</svg>
